<svg xmlns="http://www.w3.org/2000/svg" width="720" height="520" viewBox="0 0 720 520" role="img" aria-label="GitHub Wallpaper  >:=> =0AB@>5:">
  <rect width="720" height="520" fill="#f0f0f0"/>
  <rect x="40" y="40" width="640" height="440" rx="8" fill="#ffffff" stroke="#c8c8c8"/>
  <rect x="40" y="40" width="640" height="40" fill="#f3f3f3" stroke="#c8c8c8"/>
  <text x="56" y="66" fill="#1f1f1f" font-family="Segoe UI, sans-serif" font-size="14">GitHub Wallpaper  0AB@>9:8</text>
  <text x="56" y="120" fill="#1f1f1f" font-family="Segoe UI, sans-serif" font-size="13" font-weight="600">GitHub Token</text>
  <rect x="56" y="132" width="520" height="28" rx="4" fill="#ffffff" stroke="#8a8a8a"/>
  <text x="64" y="151" fill="#8a8a8a" font-family="Consolas, monospace" font-size="12">ghp_""""""""""""""""""""""""""""""""</text>
  <rect x="592" y="132" width="72" height="28" rx="4" fill="#e1e1e1" stroke="#8a8a8a"/>
  <text x="608" y="151" fill="#1f1f1f" font-family="Segoe UI, sans-serif" font-size="12">@>25@8BL</text>
  <text x="56" y="196" fill="#1f1f1f" font-family="Segoe UI, sans-serif" font-size="13" font-weight="600"> 5?>78B>@88</text>
  <rect x="56" y="208" width="608" height="120" rx="4" fill="#ffffff" stroke="#8a8a8a"/>
  <text x="64" y="236" fill="#1f1f1f" font-family="Consolas, monospace" font-size="12">microsoft/vscode</text>
  <text x="64" y="262" fill="#1f1f1f" font-family="Consolas, monospace" font-size="12">rkfsociety/GitHubWallpaper</text>
  <text x="64" y="288" fill="#8a8a8a" font-family="Segoe UI, sans-serif" font-size="12">owner/repo 8;8 URL GitHub</text>
  <text x="56" y="360" fill="#1f1f1f" font-family="Segoe UI, sans-serif" font-size="13" font-weight="600">=B5@20; >?@>A0</text>
  <text x="56" y="384" fill="#1f1f1f" font-family="Segoe UI, sans-serif" font-size="12">╦ -:>=><=K9   ¤ >@<0;L=K9   ╦ '0ABK9</text>
  <rect x="56" y="404" width="16" height="16" rx="2" fill="#ffffff" stroke="#8a8a8a"/>
  <text x="80" y="417" fill="#1f1f1f" font-family="Segoe UI, sans-serif" font-size="12">0?CA:0BL ?@8 2E>45 2 Windows</text>
  <rect x="520" y="432" width="144" height="32" rx="4" fill="#0d6efd"/>
  <text x="560" y="453" fill="#ffffff" font-family="Segoe UI, sans-serif" font-size="13">!>E@0=8BL</text>
</svg>
