<svg xmlns="http://www.w3.org/2000/svg" width="1280" height="720" viewBox="0 0 1280 720" role="img" aria-label="GitHub Wallpaper  :0@B>G:8 @5?>78B>@852 =0 @01>G5< AB>;5">
  <defs>
    <linearGradient id="bg" x1="0" y1="0" x2="1" y2="1">
      <stop offset="0%" stop-color="#0d1117"/>
      <stop offset="100%" stop-color="#161b22"/>
    </linearGradient>
  </defs>
  <rect width="1280" height="720" fill="url(#bg)"/>
  <text x="48" y="56" fill="#8b949e" font-family="Segoe UI, sans-serif" font-size="18"> 01>G89 AB>; Windows · GitHub Wallpaper</text>
  <rect x="48" y="88" width="560" height="520" rx="16" fill="#21262d" stroke="#30363d"/>
  <text x="80" y="136" fill="#58a6ff" font-family="Segoe UI, sans-serif" font-size="24" font-weight="600">microsoft/vscode</text>
  <text x="80" y="168" fill="#8b949e" font-family="Segoe UI, sans-serif" font-size="14">Visual Studio Code</text>
  <text x="80" y="212" fill="#c9d1d9" font-family="Segoe UI, sans-serif" font-size="14"> 168k   B 32k   PR 142   Issues 89</text>
  <rect x="80" y="236" width="496" height="72" rx="8" fill="#161b22"/>
  <text x="96" y="268" fill="#3fb950" font-family="Segoe UI, sans-serif" font-size="13">CI · main · success</text>
  <text x="96" y="292" fill="#8b949e" font-family="Segoe UI, sans-serif" font-size="12">>A;54=89 @5;87: January 2026</text>
  <text x="80" y="344" fill="#c9d1d9" font-family="Segoe UI, sans-serif" font-size="14" font-weight="600">:B82=>ABL</text>
  <g transform="translate(80 360)">
    <rect width="12" height="32" y="20" fill="#0e4429"/>
    <rect x="16" width="12" height="32" y="12" fill="#006d32"/>
    <rect x="32" width="12" height="32" y="4" fill="#26a641"/>
    <rect x="48" width="12" height="32" fill="#39d353"/>
    <rect x="64" width="12" height="32" y="8" fill="#006d32"/>
    <rect x="80" width="12" height="32" y="16" fill="#0e4429"/>
    <rect x="96" width="12" height="32" y="24" fill="#161b22" stroke="#30363d"/>
  </g>
  <text x="80" y="440" fill="#c9d1d9" font-family="Segoe UI, sans-serif" font-size="14" font-weight="600">5=B0</text>
  <text x="80" y="472" fill="#8b949e" font-family="Segoe UI, sans-serif" font-size="13">· Push 2 main  12 <8= =0704</text>
  <text x="80" y="498" fill="#8b949e" font-family="Segoe UI, sans-serif" font-size="13">· PR #123 opened  1 G =0704</text>
  <rect x="640" y="88" width="560" height="520" rx="16" fill="#21262d" stroke="#30363d"/>
  <text x="672" y="136" fill="#58a6ff" font-family="Segoe UI, sans-serif" font-size="24" font-weight="600">rkfsociety/GitHubWallpaper</text>
  <text x="672" y="168" fill="#8b949e" font-family="Segoe UI, sans-serif" font-size="14">8=0<8G5A:85 >1>8 A GitHub-0:B82=>ABLN</text>
  <text x="672" y="212" fill="#c9d1d9" font-family="Segoe UI, sans-serif" font-size="14"> 12   B 3   PR 1   Issues 0</text>
  <rect x="672" y="248" width="496" height="56" rx="8" fill="#3d1f1f" stroke="#f85149"/>
  <text x="688" y="282" fill="#f85149" font-family="Segoe UI, sans-serif" font-size="13">@8<5@ >H81:8: A5BL =54>ABC?=0  ?>2B>@8< ?@8 A;54CNI5< >?@>A5</text>
</svg>
